<?xml version="1.0" encoding="utf-8"?>
<!-- Generator: Adobe Illustrator 27.5.0, SVG Export Plug-In . SVG Version: 6.00 Build 0)  -->
<svg version="1.1" xmlns="http://www.w3.org/2000/svg" xmlns:xlink="http://www.w3.org/1999/xlink" x="0px" y="0px"
	 viewBox="0 0 500 500" style="enable-background:new 0 0 500 500;" xml:space="preserve">
<g id="BACKGROUND">
	<g>
		<defs>
			<rect id="XMLID_3_" width="500" height="500"/>
		</defs>
		<use xlink:href="#XMLID_3_"  style="overflow:visible;fill:#FFFFFF;"/>
		<clipPath id="XMLID_00000070806374905591739320000018038286293182891920_">
			<use xlink:href="#XMLID_3_"  style="overflow:visible;"/>
		</clipPath>
		<path style="clip-path:url(#XMLID_00000070806374905591739320000018038286293182891920_);fill:#FFECCD;" d="M135.274,352.629
			c-9.872-8.079-21.63-13.485-32.157-20.691c-10.526-7.206-20.263-17.033-22.803-29.534c-2.376-11.696,1.887-23.571,5.218-35.032
			c3.331-11.461,5.618-24.415-0.196-34.838c-5.042-9.038-15.148-14.079-25.158-16.705s-20.482-3.385-30.31-6.626
			C15.176,204.359,2.664,193.662-5,180.255v209.293c11.478,26.131,36.506,46.079,64.703,50.899
			c30.675,5.243,63.769-7.638,82.829-32.239c5.199-6.711,9.504-14.53,9.981-23.006C153.23,372.466,145.146,360.708,135.274,352.629z
			"/>
		<g style="clip-path:url(#XMLID_00000070806374905591739320000018038286293182891920_);">
			<path style="fill:#FFECCD;" d="M505.667-5H313.192c6.146,5.032,11.023,12.024,13.678,19.481
				c5.661,15.894,3.862,33.324,2.608,50.149c-1.254,16.825-1.692,34.631,6.236,49.524c10.941,20.553,38.198,30.644,59.884,22.171
				c9.688-3.785,17.839-10.569,26.5-16.329c8.661-5.759,18.582-10.7,28.958-9.982c9.443,0.653,17.876,5.875,26.879,8.799
				c8.961,2.911,18.504,3.321,27.732,1.649V-5z"/>
			<path style="fill:#FFECCD;" d="M291.943-12.717c-1.034,0.05-2.074,0.161-3.117,0.338L291.943-12.717z"/>
		</g>
		<path style="clip-path:url(#XMLID_00000070806374905591739320000018038286293182891920_);fill:#D9F0EF;" d="M459.87,304.387
			c-27.499-30.148-83.02-22.671-84.418,11.908c-0.388,9.592,1.552,19.151,1.196,28.745c-0.41,11.051-4.326,21.625-7.975,32.065
			c-3.649,10.439-7.116,21.253-6.574,32.298c0.541,11.045,5.912,22.508,15.859,27.34c8.805,4.277,19.815,3.044,28.229-1.96
			c20.633-12.269,27.219-38.063,34.307-46.189c13.805-15.829,29.518-17.269,35.675-29.483
			C484.824,341.943,474.006,319.885,459.87,304.387z"/>
		<path style="clip-path:url(#XMLID_00000070806374905591739320000018038286293182891920_);fill:#D9F0EF;" d="M202.324,121.214
			c2.105-6.441,3.63-13.293,2.484-19.972s-5.462-13.159-11.918-15.217c-6.527-2.081-13.619,0.647-19.445,4.252
			c-5.826,3.605-11.189,8.177-17.691,10.335c-9.67,3.209-20.317,0.597-30.364,2.292c-15.06,2.541-27.545,15.47-30.412,30.471
			c-2.868,15.001,3.573,31.18,15.417,40.822C150.63,206.95,190.626,157.014,202.324,121.214z"/>
		<g style="clip-path:url(#XMLID_00000070806374905591739320000018038286293182891920_);">
			<g>
				<g>
					<path style="fill:#BEE5E4;" d="M429.274,207.808c-0.187-3.566,1.682-7.692,4.23-10.999c3.381-4.387,7.829-7.89,11.579-11.942
						c3.749-4.052,6.917-9.108,6.732-14.064c-0.206-5.508-4.292-10.006-3.779-15.329c0.463-4.801,4.374-8.501,8.211-11.497
						c3.837-2.996,8.141-6.134,9.828-10.845c1.983-5.54-0.276-11.409,0.009-17.023c0.431-8.495,6.717-15.816,14.125-20.207
						c7.103-4.211,15.156-6.01,23.072-7.867c-3.652,23.288-10.053,43.281-20.581,64.3
						C467.87,174.858,451.273,192.098,429.274,207.808z"/>
					<path style="fill:#91D7EE;" d="M429.274,207.808c3.236,1.51,7.969,1.068,12.083-0.71c5.458-2.359,10.129-6.545,14.815-10.399
						c4.686-3.854,9.899-7.662,15.235-8.514c5.931-0.947,11.265,2.151,17.295-0.89c5.439-2.743,9.031-9.555,10.992-15.672
						c1.961-6.117,3.163-12.576,6.651-18.066c4.102-6.456,10.52-10.193,14.829-16.59c5.818-8.639,6.253-23.415,1.118-32.47
						c-4.597-8.106-11.835-12.641-19.012-16.462c-3.332,18.948-9.595,35.777-17.271,51.59
						C473.215,165.982,455.038,188.709,429.274,207.808z"/>
				</g>
			</g>
			<path style="fill:none;stroke:#FFFFFF;stroke-linecap:round;stroke-miterlimit:10;" d="M461.844,177.906
				c13.491-13.651,48.371-74.331,43.266-119.712"/>
			<path style="fill:none;stroke:#FFFFFF;stroke-linecap:round;stroke-miterlimit:10;" d="M475.779,159.526
				c2.77,5.019,2.96,10.694,1.62,16.267"/>
			<path style="fill:none;stroke:#FFFFFF;stroke-linecap:round;stroke-miterlimit:10;" d="M484.172,143.758
				c4.363,4.554,6.966,10.753,7.161,17.056"/>
			<path style="fill:none;stroke:#FFFFFF;stroke-linecap:round;stroke-miterlimit:10;" d="M491.994,126.964
				c5.204,3.21,8.708,9.026,9.114,15.127"/>
			<path style="fill:none;stroke:#FFFFFF;stroke-linecap:round;stroke-miterlimit:10;" d="M498.032,110.783
				c5.987,2.656,9.874,8.672,10.651,15.176"/>
			<path style="fill:none;stroke:#FFFFFF;stroke-linecap:round;stroke-miterlimit:10;" d="M470.631,166.12
				c-3.098-1.565-7.192-0.831-9.554,1.713"/>
			<path style="fill:none;stroke:#FFFFFF;stroke-linecap:round;stroke-miterlimit:10;" d="M479.997,150.676
				c-5.295-1.3-11.133-0.192-15.584,2.956"/>
			<path style="fill:none;stroke:#FFFFFF;stroke-linecap:round;stroke-miterlimit:10;" d="M487.594,135.374
				c-5.545-1.48-8.479-0.178-12.726,0.995"/>
			<path style="fill:none;stroke:#FFFFFF;stroke-linecap:round;stroke-miterlimit:10;" d="M495.349,117.72
				c-4.436-2.461-10.04-1.898-14.345,0.784"/>
			<path style="fill:none;stroke:#FFFFFF;stroke-linecap:round;stroke-miterlimit:10;" d="M499.405,104.081
				c-2.472-0.748-5.119-0.912-7.665-0.472"/>
		</g>
		<g style="clip-path:url(#XMLID_00000070806374905591739320000018038286293182891920_);">
			<g>
				<g>
					<path style="fill:#BEE5E4;" d="M108.398,444.447c3.527-0.556,7.825,0.874,11.379,3.066c4.714,2.907,8.66,6.968,13.079,10.276
						c4.419,3.308,9.777,5.934,14.687,5.235c5.457-0.776,9.506-5.308,14.853-5.35c4.823-0.038,8.909,3.467,12.287,6.973
						c3.378,3.505,6.946,7.46,11.807,8.648c5.716,1.397,11.319-1.46,16.932-1.759c8.493-0.453,16.428,5.039,21.565,11.951
						c4.926,6.628,7.551,14.45,10.22,22.13c-23.541-1.214-44.09-5.504-66.09-13.792
						C145.178,479.412,126.308,464.695,108.398,444.447z"/>
					<path style="fill:#91D7EE;" d="M108.398,444.447c-1.166,3.375-0.235,8.037,1.961,11.944c2.913,5.184,7.562,9.395,11.881,13.655
						c4.32,4.26,8.648,9.05,10.05,14.269c1.558,5.801-0.97,11.427,2.681,17.109c3.293,5.125,10.441,7.99,16.729,9.305
						c6.287,1.315,12.837,1.84,18.659,4.739c6.847,3.409,11.23,9.405,18.04,13.026c9.196,4.89,23.938,3.788,32.41-2.26
						c7.585-5.414,11.344-13.083,14.398-20.618c-19.191-1.346-36.58-5.828-53.105-11.821
						C154.561,483.807,130.069,468.088,108.398,444.447z"/>
				</g>
			</g>
			<path style="fill:none;stroke:#FFFFFF;stroke-linecap:round;stroke-miterlimit:10;" d="M141.521,473.736
				c14.978,12.001,78.951,40.391,123.557,30.601"/>
			<path style="fill:none;stroke:#FFFFFF;stroke-linecap:round;stroke-miterlimit:10;" d="M161.248,485.686
				c-4.704,3.276-10.329,4.055-16.011,3.3"/>
			<path style="fill:none;stroke:#FFFFFF;stroke-linecap:round;stroke-miterlimit:10;" d="M177.803,492.397
				c-4.076,4.812-9.971,8.044-16.221,8.893"/>
			<path style="fill:none;stroke:#FFFFFF;stroke-linecap:round;stroke-miterlimit:10;" d="M195.318,498.433
				c-2.653,5.51-8.073,9.598-14.099,10.635"/>
			<path style="fill:none;stroke:#FFFFFF;stroke-linecap:round;stroke-miterlimit:10;" d="M212.039,502.757
				c-2.02,6.231-7.6,10.721-13.988,12.169"/>
			<path style="fill:none;stroke:#FFFFFF;stroke-linecap:round;stroke-miterlimit:10;" d="M154.155,481.251
				c1.235-3.244,0.08-7.239-2.696-9.324"/>
			<path style="fill:none;stroke:#FFFFFF;stroke-linecap:round;stroke-miterlimit:10;" d="M170.488,488.962
				c0.743-5.401-0.965-11.092-4.559-15.193"/>
			<path style="fill:none;stroke:#FFFFFF;stroke-linecap:round;stroke-miterlimit:10;" d="M186.497,494.93
				c0.896-5.669-0.703-8.451-2.311-12.554"/>
			<path style="fill:none;stroke:#FFFFFF;stroke-linecap:round;stroke-miterlimit:10;" d="M204.86,500.81
				c1.987-4.667,0.846-10.182-2.269-14.186"/>
			<path style="fill:none;stroke:#FFFFFF;stroke-linecap:round;stroke-miterlimit:10;" d="M218.846,503.428
				c0.488-2.536,0.375-5.186-0.326-7.672"/>
		</g>
		<g style="clip-path:url(#XMLID_00000070806374905591739320000018038286293182891920_);">
			<g>
				<g>
					<path style="fill:#BEE5E4;" d="M131.821,23.799c-2.145,2.855-6.225,4.821-10.302,5.722c-5.408,1.195-11.068,1.028-16.543,1.73
						c-5.476,0.702-11.15,2.548-14.187,6.468c-3.376,4.357-3.127,10.429-6.936,14.182c-3.435,3.385-8.809,3.714-13.675,3.55
						s-10.18-0.519-14.497,2.013c-5.076,2.977-7.109,8.929-10.929,13.052c-5.781,6.239-15.301,7.821-23.8,6.436
						c-8.15-1.328-15.481-5.115-22.744-8.77c17.743-15.519,35.48-26.747,57.042-36.115C81.076,24.308,104.867,21.734,131.821,23.799
						z"/>
					<path style="fill:#91D7EE;" d="M131.821,23.799c-1.513-3.235-5.427-5.932-9.724-7.208c-5.7-1.693-11.969-1.479-18.036-1.53
						c-6.067-0.05-12.509-0.475-17.149-3.245c-5.157-3.079-7.26-8.878-13.837-10.415C67.145,0.015,60.019,2.935,54.59,6.369
						c-5.429,3.433-10.495,7.617-16.693,9.59c-7.289,2.32-14.609,1.068-22.018,3.211C5.873,22.063-3.941,33.118-5.812,43.357
						c-1.675,9.167,0.967,17.289,4.02,24.825c14.713-12.395,30.315-21.285,46.349-28.489
						C71.281,27.687,99.805,21.918,131.821,23.799z"/>
				</g>
			</g>
			<path style="fill:none;stroke:#FFFFFF;stroke-linecap:round;stroke-miterlimit:10;" d="M87.653,25.837
				C68.546,27.651,2.86,51.814-22.342,89.898"/>
			<path style="fill:none;stroke:#FFFFFF;stroke-linecap:round;stroke-miterlimit:10;" d="M65.172,30.994
				c1.095-5.627,4.591-10.102,9.195-13.517"/>
			<path style="fill:none;stroke:#FFFFFF;stroke-linecap:round;stroke-miterlimit:10;" d="M48.617,37.703
				c-0.425-6.292,1.557-12.717,5.451-17.677"/>
			<path style="fill:none;stroke:#FFFFFF;stroke-linecap:round;stroke-miterlimit:10;" d="M31.842,45.565
				c-1.932-5.802-0.888-12.51,2.716-17.45"/>
			<path style="fill:none;stroke:#FFFFFF;stroke-linecap:round;stroke-miterlimit:10;" d="M16.829,54.103
				c-2.888-5.879-2.009-12.987,1.568-18.474"/>
			<path style="fill:none;stroke:#FFFFFF;stroke-linecap:round;stroke-miterlimit:10;" d="M73.351,29.239
				c1.372,3.188,4.983,5.252,8.427,4.816"/>
			<path style="fill:none;stroke:#FFFFFF;stroke-linecap:round;stroke-miterlimit:10;" d="M56.258,35.076
				c3.227,4.395,8.416,7.291,13.85,7.731"/>
			<path style="fill:none;stroke:#FFFFFF;stroke-linecap:round;stroke-miterlimit:10;" d="M40.613,41.938
				c3.304,4.693,6.389,5.577,10.4,7.402"/>
			<path style="fill:none;stroke:#FFFFFF;stroke-linecap:round;stroke-miterlimit:10;" d="M23.338,50.503
				c1.824,4.733,6.482,7.898,11.506,8.603"/>
			<path style="fill:none;stroke:#FFFFFF;stroke-linecap:round;stroke-miterlimit:10;" d="M11.476,58.361
				c1.416,2.16,3.342,3.984,5.576,5.28"/>
		</g>
		<g style="clip-path:url(#XMLID_00000070806374905591739320000018038286293182891920_);">
			<polygon style="fill:#FFD187;" points="454.246,244.626 456.536,248.037 459.947,250.327 456.536,252.617 454.246,256.028 
				451.956,252.617 448.545,250.327 451.956,248.037 			"/>
			<polygon style="fill:#FFD187;" points="49.246,129.626 51.536,133.037 54.947,135.327 51.536,137.617 49.246,141.028 
				46.956,137.617 43.545,135.327 46.956,133.037 			"/>
			<polygon style="fill:#FFD187;" points="274.246,450.626 276.536,454.037 279.947,456.327 276.536,458.617 274.246,462.028 
				271.956,458.617 268.545,456.327 271.956,454.037 			"/>
			<polygon style="fill:#FFD187;" points="293.246,53.626 295.536,57.037 298.947,59.327 295.536,61.617 293.246,65.028 
				290.956,61.617 287.545,59.327 290.956,57.037 			"/>
		</g>
	</g>
</g>
<g id="OBJECTS">
	<g>
		<path style="fill:#193441;" d="M375.858,83.915l-14.216,7.774v68.863c8.709,1.312,16.394-1.03,16.394-1.03
			s1.102-29.066,1.102-37.833C379.138,112.923,383.368,92.781,375.858,83.915z"/>
		<path style="fill:#E89A49;" d="M361.767,357.26c0.268-1.486,0.529-2.972,0.756-4.459c0.248-1.486,0.439-2.974,0.66-4.461
			c0.223-1.487,0.391-2.975,0.589-4.463c0.199-1.488,0.373-2.976,0.535-4.464l0.499-4.465l0.234-4.482
			c0.138-1.489,0.093-2.994,0.212-4.483l0.357-4.468c0.238-2.98,0.649-5.943,0.765-8.924c0.054-1.491,0.193-2.974,0.214-4.466
			l0.068-4.472l-0.023-8.952c0.028-2.984,0.066-5.966,0.236-8.947c0.022-0.38,0.007-0.752-0.053-1.112l-0.087-0.518
			c-0.26-1.506-0.482-3.072-0.665-4.624c-0.194-1.555-0.33-3.122-0.492-4.683l-0.882-9.376c-0.298-3.12-0.48-6.257-0.686-9.38
			c-0.184-3.126-0.399-6.24-0.492-9.357c-0.105-3.115-0.182-6.219-0.22-9.299c-0.007-3.082,0.048-6.146,0.158-9.14
			c0.052-1.496,0.168-2.977,0.283-4.42c0.125-1.442,0.258-2.851,0.462-4.17c0.205-1.31,0.455-2.556,0.753-3.464
			c0.15-0.458,0.334-0.805,0.483-0.88c0.111-0.052,0.369,0.024-0.069,1.568c3.367-8.22-0.567-17.613-8.786-20.98
			c-8.22-3.367-17.613,0.567-20.98,8.786c-1.025,3.011-1.073,4.648-1.182,6.154c-0.072,1.486-0.022,2.712,0.057,3.829
			c0.145,2.242,0.425,4.153,0.738,5.994c0.314,1.833,0.642,3.572,1.008,5.275c0.358,1.701,0.761,3.362,1.138,5.003
			c0.76,3.28,1.592,6.477,2.433,9.645c0.815,3.169,1.662,6.305,2.533,9.422l2.579,9.315l2.625,9.251l2.628,9.218l1.333,4.6
			c0.434,1.541,0.835,3.066,1.216,4.648l-0.15-1.63c0.035,2.985-0.076,5.967-0.184,8.949l-0.456,8.943l-0.185,4.472
			c-0.047,1.491-0.074,2.983-0.088,4.474c-0.02,2.984,0.046,5.97,0.161,8.957l0.153,4.48c0.039,1.493,0.134,2.987,0.205,4.481
			l0.226,4.482l0.295,4.483c0.094,1.494,0.2,2.989,0.331,4.484c0.13,1.495,0.23,2.99,0.385,4.485
			c0.153,1.496,0.276,2.991,0.456,4.487c0.159,1.496,0.352,2.992,0.551,4.489c0.273,2.041,2.148,3.474,4.189,3.202
			C360.236,360.075,361.486,358.809,361.767,357.26z"/>
		<g>
			<path style="fill:#E89A49;" d="M353.57,350.67l-0.305,7.443c-0.116,2.822,2.079,5.204,4.901,5.32l16.935,0.693
				c1.481,0.061,2.567-1.377,2.103-2.785l0,0c-0.267-0.811-0.994-1.384-1.845-1.452l-1.54-0.093
				c-5.288-0.319-10.561-5.521-11.388-10.754L353.57,350.67z"/>
			<path style="fill:#193441;" d="M377.205,361.34c-0.267-0.811-0.994-1.384-1.845-1.452l-1.54-0.093
				c-4.221-0.255-7.842-2.829-9.554-6.518c-1.066,2.333-3.272,4.161-6.517,4.134c-1.92-0.016-3.372-0.668-4.386-1.677l-0.097,2.379
				c-0.116,2.822,2.079,5.204,4.901,5.32l16.935,0.693C376.583,364.185,377.669,362.748,377.205,361.34z"/>
		</g>
		<g>
			<path style="fill:#E89A49;" d="M335.787,335.936l-6.965,2.642c-2.641,1.002-3.97,3.955-2.969,6.596l6.01,15.848
				c0.526,1.386,2.274,1.82,3.387,0.841l0,0c0.641-0.564,0.882-1.457,0.612-2.267l-0.519-1.453
				c-1.783-4.989-0.536-9.461,5.342-14.471L335.787,335.936z"/>
			<path style="fill:#193441;" d="M335.251,361.863c0.641-0.564,0.882-1.457,0.612-2.267l-0.519-1.453
				c-1.423-3.982-0.476-8.323,2.244-11.345c-2.564-0.064-5.112-1.376-6.361-4.371c-0.739-1.772-0.709-3.363-0.179-4.693
				l-2.226,0.844c-2.641,1.002-3.97,3.955-2.969,6.596l6.01,15.848C332.39,362.408,334.138,362.842,335.251,361.863z"/>
		</g>
		<path style="fill:#E89A49;" d="M340.171,344.377c1.26-1.22,2.487-2.464,3.705-3.715c1.229-1.243,2.41-2.522,3.617-3.781
			l3.552-3.83l3.511-3.861c4.638-5.18,9.161-10.446,13.599-15.777c2.232-2.655,4.405-5.355,6.501-8.112
			c1.05-1.377,2.088-2.763,3.095-4.173c1.007-1.409,2.035-2.803,3.025-4.225c1.997-2.831,3.984-5.67,6.02-8.473
			c1.021-1.399,2.055-2.788,3.114-4.158c1.055-1.373,2.129-2.733,3.23-4.071c1.628-1.978,2.035-4.559,1.309-6.83l-0.298-0.907
			c-0.796-2.428-1.426-4.922-2.111-7.395c-0.686-2.472-1.323-4.964-1.98-7.447c-1.289-4.978-2.537-9.972-3.707-14.997
			c-0.596-2.508-1.156-5.031-1.72-7.553l-1.605-7.599l-0.747-3.822c-0.241-1.277-0.506-2.545-0.728-3.829
			c-0.46-2.563-0.914-5.129-1.288-7.726c-1.431-9.928-10.639-16.815-20.566-15.385c-9.927,1.431-16.815,10.639-15.384,20.566
			c0.428,2.967,1.602,5.728,3.23,8.011c1.532,2.131,2.984,4.294,4.431,6.459c0.731,1.08,1.419,2.176,2.131,3.264l2.112,3.271
			l4.114,6.587c1.343,2.207,2.689,4.413,3.999,6.633c2.643,4.432,5.208,8.895,7.732,13.374c1.25,2.245,2.518,4.482,3.739,6.738
			c1.222,2.256,2.499,4.49,3.609,6.791l1.011-7.737c-0.975,1.433-1.978,2.846-3,4.244c-1.017,1.402-2.06,2.784-3.116,4.157
			c-2.118,2.741-4.284,5.445-6.441,8.157c-1.087,1.35-2.136,2.727-3.205,4.09c-1.07,1.362-2.109,2.748-3.135,4.142
			c-2.057,2.786-4.038,5.63-5.959,8.518c-3.87,5.756-7.653,11.576-11.322,17.482l-2.719,4.454l-2.679,4.484
			c-0.869,1.512-1.765,3.005-2.613,4.534c-0.859,1.52-1.709,3.047-2.525,4.599c-1.052,1.999-0.284,4.473,1.715,5.525
			C337.024,345.901,338.935,345.57,340.171,344.377z"/>
		<path style="fill:#FFD05B;" d="M395.429,262.834c-4.615-14.469-12.435-39.835-13.332-48.314
			c-1.283-12.117-4.802-24.987-4.802-24.987l-42.073,4.882c-3.896,11.036-5.706,20.707-2.691,32.492
			c3.016,11.786,17.527,55.489,18.542,58.264c1.015,2.775-0.209,25.249-0.209,25.249l-12.257,18.231l4.736,12.837l8.586-8.23
			l0.698,14.879l11.637-0.768l3.502-31.275l24.555-33.904C396.372,276.596,397.528,269.416,395.429,262.834z M368.728,283.946
			c-0.202-7.346-3.906-30.137-3.906-30.137l11.931,21.199C376.752,275.008,368.743,284.495,368.728,283.946z"/>
		<path style="fill:#FFC0A9;" d="M437.432,116.339c-0.359-0.194-0.75-0.31-1.132-0.354c0,0-0.119-0.013-0.349-0.039
			c-0.227-0.012-0.574-0.03-0.996,0.029c-0.855,0.088-2.08,0.44-3.305,1.291c-0.624,0.412-1.22,0.958-1.799,1.597
			c-0.568,0.644-1.109,1.379-1.687,2.12c-0.571,0.745-1.242,1.454-1.946,2.198c-0.691,0.753-1.379,1.565-2.067,2.425
			c-1.385,1.715-2.769,3.616-4.176,5.64c-1.412,2.02-2.812,4.183-4.2,6.421c-1.382,2.24-2.78,4.547-4.14,6.852
			c-0.666,1.135-1.337,2.278-2.01,3.427c-0.653,1.126-1.313,2.224-1.969,3.216c-0.234,0.363-0.471,0.712-0.704,1.041
			c-0.108-0.05-0.211-0.096-0.325-0.152c-0.825-0.407-1.759-0.945-2.684-1.523c-1.858-1.177-3.737-2.491-5.495-3.797
			c-1.757-1.317-3.428-2.611-4.961-3.831c-3.057-2.458-5.623-4.545-7.367-6.05c-1.729-1.466-2.718-2.305-2.718-2.305l-0.102-0.087
			c-3.347-2.838-8.362-2.426-11.2,0.922c-2.822,3.328-2.427,8.307,0.867,11.153c0,0,0.279,0.241,0.802,0.693
			c0.513,0.433,1.245,1.077,2.211,1.848c1.934,1.542,4.661,3.763,8.136,6.242c1.735,1.245,3.643,2.571,5.753,3.91
			c2.11,1.344,4.381,2.734,6.993,4.05c1.313,0.66,2.697,1.312,4.303,1.92c0.809,0.302,1.672,0.595,2.673,0.851
			c1.011,0.243,2.142,0.479,3.693,0.503c0.8-0.003,1.677-0.044,2.791-0.327c0.265-0.065,0.533-0.14,0.84-0.253l0.44-0.167
			l0.217-0.089c0.192-0.089-0.278,0.135,0.458-0.211l0.027-0.016l0.22-0.127l0.333-0.193l0.431-0.27l0.419-0.287l0.263-0.206
			l0.479-0.399c0.265-0.245,0.544-0.508,0.761-0.743c0.446-0.476,0.814-0.928,1.124-1.347c1.231-1.686,1.952-3.101,2.644-4.502
			c1.319-2.783,2.304-5.392,3.229-7.962c0.876-2.529,1.739-5.017,2.574-7.426c0.84-2.368,1.682-4.617,2.547-6.698
			c0.869-2.077,1.792-3.97,2.744-5.618c0.479-0.821,0.957-1.589,1.433-2.291c0.465-0.709,0.959-1.335,1.53-1.798
			c1.164-0.914,2.303-1.377,3.014-1.91c0.744-0.503,1.22-0.973,1.547-1.368c0.327-0.385,0.493-0.692,0.493-0.692l0.598-1.107
			C439.502,119.036,438.94,117.153,437.432,116.339z"/>
		<path style="fill:#FFC0A9;" d="M337.414,130.835c11.755-0.258,10.779-10.257,10.779-10.257l7.862-0.178l6.482-2.201
			c0,0,0.235,12.491,11.983,12.943c3.818,0.147,11.378,12.614,11.378,12.614l-53.887-0.447
			C332.011,143.31,335.656,130.873,337.414,130.835z"/>
		<path style="fill:#3CC9E3;" d="M379.661,132.696c-3.1-1.582-7.953-1.738-7.953-1.738s-3.385,9.284-15.45,9.336
			c-12.063-0.253-15.231-9.994-15.231-9.994s-5.407-1.03-10.408,3.805c-5.001,4.835,0.536,13.624,0.536,13.624
			s6.429,22.493,3.254,41.449c0,0,8.278,4.369,21.407,4.477c13.129,0.109,21.478-4.122,21.478-4.122
			c-2.826-14.509,1.561-22.082,2.652-28.559C381.037,154.499,375.386,147.707,379.661,132.696z"/>
		<path style="opacity:0.6;fill:#FFAA03;" d="M364.994,253.897c0,0-4.921-24.938-2.837-33.316c0,0,3.256,24.499,14.595,54.427
			L364.994,253.897z"/>
		<g>
			<g>
				<defs>
					<path id="XMLID_11_" d="M377.615,94.536c-0.663-9.097-6.189-14.041-16.468-14.504c-6.126-0.276-11.914,2.817-15.421,7.846
						l-0.506,0.726c-2.899,4.157-3.957,10.984-2.753,15.916c0,0,0.955,0.189,4.059,6.129c3.104,5.941,0.955,16.395,0.955,16.395
						s10.647,6.824,14.036,0.073l-0.027-8.091c0,0,5.686,2.638,10.081,0.564C373.87,118.506,378.968,113.101,377.615,94.536z"/>
				</defs>
				<use xlink:href="#XMLID_11_"  style="overflow:visible;fill:#FFC0A9;"/>
				<clipPath id="XMLID_00000183246340816780410400000012032145112869247915_">
					<use xlink:href="#XMLID_11_"  style="overflow:visible;"/>
				</clipPath>
			</g>
		</g>
		<path style="fill:#193441;" d="M367.339,74.97c-7.148-2.86-13.809-2.684-19.372,0.638c-2.679,1.6-5.44,4.304-7.01,7.001
			c-3.182,5.465-3.928,9.324-3.044,15.586c0.883,6.261,4.066,10.959,9.821,16.018c1.073-0.423,1.975-2.93,2.32-4.56
			c-2.343-1.341-1.566-5.814,1.768-5.991c0.223-0.463,0.534-0.747,1.002-0.657c0.258,0.05,0.587,0.277,0.937,0.587
			c5.413-1.329,9.098-4.444,13.01-8.197c5.966-5.723,9.614-11.728,9.614-11.728C375.615,79.709,370.138,76.089,367.339,74.97z"/>
		<path style="fill:#FFC0A9;" d="M347.999,106.696c-0.017,2.061,1.64,3.746,3.701,3.763c2.061,0.017,3.746-1.64,3.763-3.701
			c0.017-2.061-1.64-3.746-3.701-3.763C349.7,102.978,348.016,104.635,347.999,106.696z"/>
		<path style="fill:#FFAD94;" d="M362.651,119.475l0.66,2.964c0,0-5.596-1.603-7.032-5.349
			C356.28,117.091,360.877,118.966,362.651,119.475z"/>
		<g>
			<path style="fill:#FFFFFF;" d="M375.213,110.529c0.469-0.047,0.833,0.449,0.605,0.861c-0.667,1.206-1.888,2.077-3.364,2.226
				c-1.449,0.147-2.798-0.438-3.693-1.452c-0.333-0.377-0.123-0.971,0.378-1.021L375.213,110.529z"/>
		</g>
		<g>
			<polygon style="fill:#FFC970;" points="436.399,106.175 435.474,96.928 434.37,97.198 435.612,107.056 			"/>
			<path style="fill:#FFFFFF;" d="M409.57,112.196c0,0,3.899-9.847,22.452-6.79c0,0-2.323-6.353,2.465-7.276l0.944,8.189
				l-1.928,3.035L409.57,112.196z"/>
			<polygon style="fill:#FFC970;" points="407.143,113.189 409.592,151.248 435.014,148.702 432.772,109.351 			"/>
			<polygon style="fill:#FFB233;" points="435.014,146.753 438.048,142.339 436.305,104.577 432.772,107.403 			"/>
		</g>
		<path style="fill:#193441;" d="M350.252,103.05v-6.314l-10.864-10.96c-4.071,8.866-1.778,29.008-1.778,37.775
			c0,8.767,0.584,35.253,0.584,37.172c0,3.954,12.058,3.458,12.058,0.236c0-3.223,0-51.815,0-51.815
			C347.33,108.498,347.517,104.071,350.252,103.05z"/>
	</g>
	<g>
		<path style="fill:#2E9BC0;" d="M349.608,204.133l-67.44-52.579c-0.869-0.678-1.966-0.994-3.063-0.884l0,0
			c-2.353,0.237-4.069,2.337-3.832,4.691L276.849,171l52.795,49.959L349.608,204.133z"/>
		<path style="fill:#036D90;" d="M349.608,204.133l-67.44-52.579c-0.869-0.678-1.966-0.994-3.063-0.884l0,0
			c-2.353,0.237-4.069,2.337-3.832,4.691l69.055,53.221L349.608,204.133z"/>
		<path style="fill:#C9EFDF;" d="M333.41,206.82l-57.63-46.433c0,0-39.927,9.384-39.163,10.312s58.865,55.545,58.865,55.545
			L333.41,206.82z"/>
		<path style="fill:#2E9BC0;" d="M298.612,220.735l-60.454-53.505c-1.275-1.128-3.074-1.449-4.661-0.832l0,0
			c-1.902,0.741-3.077,2.659-2.872,4.69L247.7,342.39l59.115,64.668L298.612,220.735z"/>
		<path style="fill:#036D90;" d="M287.849,220.312l12.189-0.391l-61.879-52.691c-1.275-1.128-3.074-1.449-4.661-0.832l0,0
			c-1.902,0.741-3.077,2.659-2.872,4.69L287.849,220.312z"/>
		<path style="fill:#78EEDB;" d="M342.438,206.502c0,0-23.611-7.737-44.489,11.641C297.949,218.143,332.545,233.006,342.438,206.502
			z"/>
		<path style="fill:#3CC9E3;" d="M349.831,203.726l18.72,187.629c0,0-24.453,16.662-61.737,15.703l-12.793-128.806l-5.927-58.823
			C320.928,216.121,349.831,203.726,349.831,203.726z"/>
		
			<line style="fill:none;stroke:#A6E5CA;stroke-linecap:round;stroke-miterlimit:10;" x1="319.295" y1="203.408" x2="281.71" y2="171.393"/>
		
			<line style="fill:none;stroke:#A6E5CA;stroke-linecap:round;stroke-miterlimit:10;" x1="312.033" y1="204.849" x2="266.103" y2="166.702"/>
		
			<line style="fill:none;stroke:#A6E5CA;stroke-linecap:round;stroke-miterlimit:10;" x1="306.846" y1="208.813" x2="264.156" y2="173.357"/>
		
			<line style="fill:none;stroke:#A6E5CA;stroke-linecap:round;stroke-miterlimit:10;" x1="301.659" y1="212.776" x2="253.208" y2="170.995"/>
	</g>
	<g>
		<path style="fill:#BC3E2C;" d="M284.503,192.972l-61.829-59.075c-0.797-0.761-1.857-1.186-2.959-1.186l0,0
			c-2.365,0-4.283,1.917-4.283,4.283v15.717l47.521,55L284.503,192.972z"/>
		<path style="fill:#7E291D;" d="M284.503,192.972l-61.829-59.075c-0.797-0.761-1.857-1.186-2.959-1.186l0,0
			c-2.365,0-4.283,1.917-4.283,4.283l63.371,59.876L284.503,192.972z"/>
		<path style="fill:#FFE9C6;" d="M268.117,194.021l-52.684-51.977c0,0-40.667,5.333-40,6.333c0.667,1,53,61.167,53,61.167
			L268.117,194.021z"/>
		<path style="fill:#BC3E2C;" d="M232.1,204.377l-54.785-59.296c-1.156-1.251-2.913-1.75-4.554-1.295l0,0
			c-1.967,0.546-3.328,2.337-3.328,4.378v190.26l52.333,70.269L232.1,204.377z"/>
		<path style="fill:#7E291D;" d="M221.433,202.877l12.167,0.833l-56.285-58.63c-1.156-1.251-2.913-1.75-4.554-1.295l0,0
			c-1.967,0.546-3.328,2.337-3.328,4.378L221.433,202.877z"/>
		<path style="fill:#FFC970;" d="M277.132,194.609c0,0-22.716-10.065-45.432,7.122C231.7,201.731,264.632,219.988,277.132,194.609z"
			/>
		<path style="fill:#FB523A;" d="M285,192.589v206.67c0,0-26,14.127-63,9.434v-206.67C255,202.024,285,192.589,285,192.589z"/>
		
			<line style="fill:none;stroke:#FFD48D;stroke-linecap:round;stroke-miterlimit:10;" x1="254.416" y1="189.21" x2="220.23" y2="153.589"/>
		
			<line style="fill:none;stroke:#FFD48D;stroke-linecap:round;stroke-miterlimit:10;" x1="247.046" y1="189.917" x2="205.171" y2="147.357"/>
		
			<line style="fill:none;stroke:#FFD48D;stroke-linecap:round;stroke-miterlimit:10;" x1="241.488" y1="193.34" x2="202.568" y2="153.783"/>
		
			<line style="fill:none;stroke:#FFD48D;stroke-linecap:round;stroke-miterlimit:10;" x1="235.929" y1="196.764" x2="191.912" y2="150.336"/>
	</g>
	<g>
		<path style="fill:#2E9BC0;" d="M191.628,206.215l-61.293-59.631c-0.79-0.768-1.846-1.203-2.948-1.213l0,0
			c-2.365-0.021-4.3,1.879-4.321,4.244l-0.142,15.717l47.022,55.427L191.628,206.215z"/>
		<path style="fill:#036D90;" d="M191.628,206.215l-61.293-59.631c-0.79-0.768-1.846-1.203-2.948-1.213l0,0
			c-2.365-0.021-4.3,1.879-4.321,4.244l62.828,60.446L191.628,206.215z"/>
		<path style="fill:#C9EFDF;" d="M175.234,207.116l-52.213-52.451c0,0-40.713,4.966-40.056,5.972
			c0.658,1.006,52.446,61.642,52.446,61.642L175.234,207.116z"/>
		<path style="fill:#2E9BC0;" d="M139.124,217.147l-54.247-59.788c-1.144-1.261-2.897-1.777-4.542-1.336l0,0
			c-1.972,0.529-3.349,2.307-3.367,4.348L75.25,350.623l51.697,70.739L139.124,217.147z"/>
		<path style="fill:#036D90;" d="M128.471,215.551l12.159,0.943l-55.753-59.135c-1.144-1.261-2.897-1.777-4.542-1.336l0,0
			c-1.972,0.529-3.349,2.307-3.367,4.348L128.471,215.551z"/>
		<path style="fill:#78EEDB;" d="M184.242,207.786c0,0-22.624-10.27-45.494,6.712C138.748,214.497,171.513,233.05,184.242,207.786z"
			/>
		<path style="fill:#3CC9E3;" d="M191.895,205.835l-1.865,206.662c0,0-26.126,13.892-63.083,8.866l1.865-206.662
			C161.811,214.998,191.895,205.835,191.895,205.835z"/>
		
			<line style="fill:none;stroke:#A6E5CA;stroke-linecap:round;stroke-miterlimit:10;" x1="161.576" y1="202.182" x2="127.713" y2="166.253"/>
		
			<line style="fill:none;stroke:#A6E5CA;stroke-linecap:round;stroke-miterlimit:10;" x1="154.2" y1="202.822" x2="112.711" y2="159.886"/>
		
			<line style="fill:none;stroke:#A6E5CA;stroke-linecap:round;stroke-miterlimit:10;" x1="148.611" y1="206.195" x2="110.049" y2="166.288"/>
		
			<line style="fill:none;stroke:#A6E5CA;stroke-linecap:round;stroke-miterlimit:10;" x1="143.022" y1="209.568" x2="99.425" y2="162.745"/>
	</g>
	<g>
		<path style="fill:#885017;" d="M174.307,121.659c-1.479-4.466-5.585-5.5-2.493-11.802c3.092-6.303-0.387-9.163-1.417-15.862
			l-20.871-4.284l-20.871,4.284c-1.031,6.7-4.509,9.559-1.417,15.862c3.092,6.303-1.014,7.336-2.493,11.802
			c-1.479,4.466-0.889,7.903,3.921,9.621c4.81,1.718,20.861,0.001,20.861,0.001s16.051,1.717,20.861-0.001
			C175.196,129.562,175.786,126.125,174.307,121.659z"/>
		<path style="fill:#FFB233;" d="M129.691,178.891l19.791,0.069l19.791-0.069l10.74,20.75c0,0-14.135,13.572-30.531,13.572
			c-16.395,0-28.09-3.875-30.531-13.572C116.511,189.945,129.691,178.891,129.691,178.891z"/>
		<path style="fill:#E89A49;" d="M167.001,124.715c-10.895-0.329-9.913-9.591-9.913-9.591l-7.287-0.225l-7.287,0.225
			c0,0,0.982,9.261-9.913,9.591c-3.54,0.107-10.645,11.606-10.645,11.606h49.957C171.914,136.321,168.631,124.764,167.001,124.715z"
			/>
		<path style="fill:#E88620;" d="M142.167,118.009c-0.211,0.863-0.545,1.823-1.084,2.745c3.412,7.4,12.867,8.34,17.115-0.508
			c-0.325-0.547-0.561-1.391-0.73-2.237H142.167z"/>
		<path style="fill:#E89A49;" d="M132.87,92.152c1.005-10.716,8.845-16.866,16.559-16.742c7.714,0.123,15.401,6.523,16.145,17.267
			c0.436,6.293-0.934,13.075-1.921,16.974c-0.587,2.32-1.685,4.429-3.208,6.093c-3.49,3.816-8.025,6.858-11.589,6.801
			c-3.565-0.057-8.023-3.244-11.42-7.17c-1.482-1.713-2.528-3.856-3.059-6.194C133.486,105.252,132.281,98.429,132.87,92.152z"/>
		<path style="fill:#FFFFFF;" d="M145.004,111.635c-0.645,0-1.074,0.726-0.706,1.257c1.075,1.552,2.86,2.572,4.892,2.572
			c1.995,0,3.753-0.983,4.833-2.488c0.402-0.56,0.034-1.34-0.655-1.34H145.004z"/>
		<g>
			<g>
				<path style="fill:#E89A49;" d="M116.529,213.65l-5.832-3.697c-2.212-1.402-5.141-0.746-6.543,1.466l-8.413,13.27
					c-0.736,1.161-0.086,2.699,1.259,2.98l0,0c0.775,0.162,1.571-0.156,2.022-0.807l0.789-1.193
					c2.709-4.096,9.756-5.323,14.34-3.558L116.529,213.65z"/>
				<path style="fill:#E89A49;" d="M97,227.669c0.775,0.162,1.571-0.156,2.022-0.807l0.789-1.193
					c2.163-3.27,5.909-4.981,9.663-4.644c-1.378-1.938-1.822-4.557-0.295-7.149c0.903-1.534,2.1-2.397,3.381-2.742l-1.864-1.182
					c-2.212-1.402-5.141-0.746-6.543,1.466l-8.413,13.27C95.005,225.85,95.655,227.388,97,227.669z"/>
			</g>
			<path style="fill:#FFD05B;" d="M113.415,222.815l68.59-8.963c7.315-1.143,12.16-8.206,10.592-15.442l-0.001-0.007
				c-1.176-5.427-5.595-9.272-10.74-10.017c-1.715-0.248-3.51-0.152-5.293,0.345l-6.43,2.047l-59.384,18.901L113.415,222.815z"/>
		</g>
		<path style="fill:#FFFFFF;" d="M116.067,138.969c0,0,2.605-6.094,7.203-10.615c4.599-4.521,12.503-4.126,12.503-4.126
			s3.004,8.898,13.832,9.106c10.828-0.208,13.832-9.106,13.832-9.106s7.904-0.395,12.503,4.126
			c4.599,4.521,7.204,10.615,7.204,10.615l-13.498,10.513c0,0,1.355,27.476,2.385,34.736c0,0-6.035,6.195-22.425,6.195
			c-16.39,0-24.219-7.212-24.219-7.212c1.029-7.26,4.179-33.719,4.179-33.719L116.067,138.969z"/>
		<path style="fill:#E89A49;" d="M145.667,162.769c-0.273-1.666-1.844-2.795-3.51-2.522l-0.602,0.099
			c-0.438,0.072-0.763,0.212-1.053,0.375c-0.313,0.154-0.576,0.349-0.811,0.567c-0.496,0.425-0.878,0.97-1.271,1.548
			c-0.382,0.582-0.813,1.151-1.372,1.57c-0.565,0.41-1.174,0.774-1.771,1.15c-0.611,0.363-1.209,0.738-1.849,1.065
			c-0.625,0.341-1.269,0.664-1.905,0.99c-1.302,0.616-2.624,1.197-3.956,1.758c-1.338,0.555-2.683,1.091-4.039,1.605l-1.375,0.513
			c0.049-0.193,0.093-0.388,0.142-0.581c0.953-3.699,1.924-7.383,3.01-10.992c0.903-3.047,2.696-11.652,2.696-11.652
			s-9.44-7.059-10.427-7.898c-0.623,1.416-1.172,2.81-1.68,4.196c-0.732,1.986-1.356,3.963-1.934,5.933
			c-0.574,1.97-1.116,3.928-1.597,5.893c-0.966,3.925-1.827,7.835-2.559,11.76c-0.372,1.961-0.723,3.923-1.055,5.888
			c-0.168,0.982-0.326,1.967-0.475,2.955l-0.438,3.005l-0.076,0.518c-0.166,1.13-0.001,2.32,0.545,3.42
			c1.425,2.868,4.906,4.038,7.775,2.613c0.775-0.385,1.428-0.731,2.126-1.102l2.042-1.111c1.338-0.779,2.679-1.541,3.976-2.389
			c1.307-0.828,2.586-1.704,3.841-2.621c1.259-0.911,2.506-1.84,3.734-2.796c1.228-0.96,2.437-1.948,3.63-2.958
			c1.208-0.991,2.381-2.033,3.564-3.066c0.588-0.525,1.159-1.07,1.74-1.609c0.591-0.526,1.295-0.922,2.003-1.355
			c0.712-0.419,1.382-0.93,1.918-1.578c0.526-0.657,0.96-1.44,1.043-2.446C145.715,163.276,145.707,163.016,145.667,162.769z"/>
		<path style="fill:#E89A49;" d="M153.143,162.257c0.303-1.661,1.895-2.761,3.555-2.458l0.6,0.109
			c0.437,0.08,0.759,0.226,1.046,0.395c0.31,0.16,0.57,0.36,0.801,0.582c0.489,0.434,0.86,0.985,1.243,1.571
			c0.372,0.588,0.792,1.165,1.343,1.594c0.558,0.42,1.16,0.795,1.75,1.182c0.604,0.375,1.196,0.76,1.829,1.099
			c0.619,0.353,1.257,0.687,1.887,1.024c1.291,0.639,2.602,1.244,3.924,1.829c1.327,0.579,2.663,1.14,4.009,1.678l1.366,0.538
			c-0.045-0.194-0.086-0.39-0.131-0.583c-0.886-3.716-1.79-7.416-2.81-11.044c-0.848-3.063-3.909-10.289-3.909-10.289
			s10.99-8.296,11.992-9.117c0.597,1.427,1.12,2.831,1.603,4.226c0.696,1.999,1.284,3.987,1.826,5.967
			c0.538,1.98,1.045,3.948,1.49,5.921c0.895,3.942,1.685,7.867,2.346,11.805c0.336,1.968,0.651,3.935,0.949,5.906
			c0.15,0.985,0.291,1.972,0.421,2.963l0.384,3.013l0.067,0.519c0.146,1.132-0.041,2.32-0.607,3.41
			c-1.477,2.842-4.979,3.949-7.821,2.472c-0.768-0.399-1.414-0.757-2.106-1.141l-2.022-1.147c-1.324-0.803-2.651-1.59-3.932-2.46
			c-1.291-0.852-2.555-1.751-3.793-2.691c-1.242-0.934-2.472-1.885-3.683-2.863c-1.21-0.982-2.402-1.991-3.576-3.023
			c-1.19-1.012-2.344-2.075-3.508-3.13c-0.579-0.535-1.139-1.091-1.711-1.641c-0.582-0.537-1.279-0.946-1.979-1.391
			c-0.704-0.432-1.365-0.955-1.889-1.612c-0.514-0.666-0.933-1.457-0.998-2.465C153.085,162.763,153.098,162.503,153.143,162.257z"
			/>
		<g>
			<path style="fill:#FFFFFF;" d="M149.519,146.739c13.102-8.767,21.52-3.79,21.52-3.79L170.26,151h-20.741h-20.741l-0.779-8.051
				C127.999,142.949,136.59,137.972,149.519,146.739z"/>
			<polygon style="fill:#FB523A;" points="152.665,181.526 172.577,174.467 172.577,141.639 152.665,148.698 			"/>
			<polygon style="fill:#FB523A;" points="146.546,181.526 126.633,174.467 126.633,141.639 146.546,148.698 			"/>
			
				<rect x="146.21" y="148.698" transform="matrix(-1 -1.224647e-16 1.224647e-16 -1 298.8749 330.2242)" style="fill:#BC3E2C;" width="6.454" height="32.828"/>
		</g>
		<path style="fill:#E89A49;" d="M173.667,170.248c-0.85-0.352-1.703-0.698-2.546-1.065c-1.322-0.585-2.633-1.19-3.924-1.829
			c-0.631-0.337-1.268-0.671-1.887-1.024c-0.633-0.339-1.225-0.724-1.829-1.098c-0.591-0.387-1.193-0.761-1.751-1.182
			c-0.551-0.429-0.971-1.006-1.343-1.594c-0.383-0.586-0.754-1.137-1.243-1.571c-0.231-0.222-0.49-0.422-0.801-0.582
			c-0.287-0.169-0.609-0.315-1.046-0.395l-0.6-0.109c-1.661-0.303-3.252,0.798-3.555,2.458c-0.045,0.246-0.057,0.506-0.043,0.745
			c0.065,1.007,0.484,1.799,0.998,2.465c0.524,0.657,1.184,1.18,1.889,1.612c0.7,0.445,1.397,0.854,1.979,1.391
			c0.572,0.55,1.132,1.105,1.711,1.641c1.165,1.054,2.319,2.117,3.508,3.13c1.174,1.031,2.365,2.041,3.576,3.023
			c1.211,0.978,2.441,1.929,3.683,2.863c1.054,0.8,2.131,1.564,3.224,2.301V170.248z"/>
		<path style="fill:#E89A49;" d="M145.667,162.769c-0.273-1.666-1.844-2.795-3.51-2.522l-0.602,0.099
			c-0.438,0.072-0.763,0.212-1.053,0.376c-0.313,0.154-0.576,0.349-0.811,0.567c-0.496,0.425-0.878,0.97-1.271,1.548
			c-0.382,0.582-0.813,1.151-1.372,1.57c-0.565,0.41-1.174,0.774-1.772,1.15c-0.611,0.364-1.209,0.738-1.849,1.065
			c-0.625,0.341-1.269,0.664-1.905,0.989c-1.302,0.616-2.624,1.197-3.956,1.758c-0.973,0.404-1.956,0.785-2.939,1.168
			c-0.142,2.148-0.224,4.3-0.277,6.452c-0.04,1.647-0.072,3.294-0.105,4.94c1.299-0.824,2.571-1.695,3.819-2.607
			c1.259-0.911,2.506-1.84,3.734-2.795c1.228-0.96,2.437-1.948,3.63-2.958c1.208-0.991,2.381-2.033,3.564-3.066
			c0.588-0.525,1.159-1.07,1.74-1.609c0.591-0.526,1.296-0.922,2.003-1.355c0.712-0.419,1.382-0.93,1.918-1.578
			c0.526-0.657,0.96-1.44,1.042-2.447C145.715,163.276,145.707,163.016,145.667,162.769z"/>
		<path style="fill:#885017;" d="M149.64,71.877c-12.483,0-22.13,11.138-22.261,23.167c-0.058,5.333,0.843,0,19,0l2.911-8.833
			l3.61,8.833c18.157,0,19.058,5.333,19,0C171.769,83.015,162.122,71.877,149.64,71.877z"/>
		<g>
			<g>
				<path style="fill:#E89A49;" d="M158.181,261.64l6.005,3.41c2.277,1.293,3.075,4.187,1.782,6.464l-7.758,13.664
					c-0.679,1.195-2.342,1.344-3.222,0.289l0,0c-0.507-0.608-0.601-1.46-0.238-2.164l0.682-1.257
					c2.342-4.317,0.842-10.698-2.87-13.914l0,0L158.181,261.64z"/>
				<path style="fill:#E89A49;" d="M154.988,285.467c-0.507-0.608-0.601-1.46-0.238-2.164l0.682-1.257
					c1.869-3.446,1.619-7.557-0.444-10.712c2.358,0.305,4.878-0.534,6.448-3.101c0.929-1.518,1.128-2.98,0.831-4.273l1.919,1.09
					c2.277,1.293,3.075,4.187,1.782,6.464l-7.758,13.664C157.531,286.372,155.868,286.522,154.988,285.467z"/>
			</g>
			<path style="fill:#FFE299;" d="M151.556,268.697l-24.333-64.752c-2.43-6.993,1.527-14.59,8.65-16.608l0.007-0.002
				c7.123-2.018,14.476,2.376,16.074,9.605l12.451,67.936L151.556,268.697z"/>
		</g>
	</g>
	<path style="fill:#FFC0A9;" d="M352.754,194.668c0,0-0.276-0.435-0.94-0.979c-0.333-0.261-0.757-0.595-1.29-0.848
		c-0.531-0.252-1.164-0.484-1.893-0.677c-1.456-0.377-3.335-0.276-5.257-0.904c-0.966-0.324-1.995-0.606-3.083-0.937
		c-1.088-0.304-2.232-0.624-3.426-0.958c-2.393-0.627-4.98-1.348-7.738-1.997c-2.756-0.651-5.676-1.275-8.712-1.856
		c-1.52-0.292-3.067-0.516-4.65-0.758c-0.792-0.113-1.636-0.209-2.402-0.3l-1.166-0.135l-0.146-0.017l-0.036-0.004
		c-0.008-0.001-0.084-0.005-0.059-0.006l-0.033-0.008l-0.132-0.029l-0.259-0.069c-0.017-0.005-0.032-0.014-0.05-0.019
		c0.097-0.231,0.201-0.47,0.316-0.718c0.509-1.097,1.164-2.295,1.876-3.487c1.435-2.393,3.084-4.797,4.731-7.109
		c3.334-4.617,6.722-8.886,9.672-12.503c2.918-3.621,3.658-4.526,5.436-6.593c3.095-5.041,0.864-19.774-2.11-20.425
		c-1.129,0.461-4.43,3.637-5.279,4.625c0,0-1.075,1.251-2.955,3.44c-1.824,2.2-4.398,5.351-7.405,9.224
		c-2.977,3.901-6.387,8.508-9.793,13.784c-1.711,2.64-3.413,5.443-5.018,8.551c-0.802,1.56-1.583,3.191-2.298,5.029
		c-0.356,0.923-0.697,1.899-0.996,3c-0.293,1.113-0.558,2.326-0.632,3.926c-0.029,0.803-0.006,1.718,0.195,2.795
		c0.201,1.067,0.62,2.361,1.436,3.612c0.408,0.625,0.909,1.219,1.466,1.737c0.264,0.241,0.597,0.518,0.837,0.687l0.25,0.165
		l0.859,0.555c0.272,0.159,0.542,0.32,0.821,0.465c2.215,1.189,4.658,1.898,7.092,2.089l0.912,0.043l0.455,0.004l0.113,0
		c0.05,0.001-0.002-0.002,0.015-0.002l0.037-0.001l0.147-0.005l1.173-0.036c0.75-0.021,1.496-0.043,2.238-0.064
		c1.501-0.045,2.984-0.089,4.442-0.133c2.929-0.104,5.766-0.134,8.455-0.122c2.686,0.032,5.229,0.079,7.553,0.276
		c2.328,0.162,4.433,0.466,6.284,0.752c1.861,0.285,3.24,1.332,4.446,1.798c1.189,0.515,2.194,0.669,2.908,0.691
		c0.723,0.018,1.187-0.118,1.187-0.118l0.42-0.122c0.305-0.091,0.603-0.225,0.885-0.404
		C353.311,198.523,353.804,196.327,352.754,194.668z"/>
	<g>
		<g>
			<g>
				<path style="fill:#B56B1F;" d="M314.166,419.455l-3.042-5.105l8.494-6.028c1.474,1.631,3.315,2.77,5.301,3.395
					C323.998,416.533,319.197,420.705,314.166,419.455z"/>
				<path style="fill:#193441;" d="M313.772,418.794c2.299,0.785,4.981,0.487,7.173-1.665c2.108-2.07,2.362-4.455,1.539-6.491
					c3.624,2.112,8.192,2.233,11.992,0.067l1.426-0.813c0.799-0.434,1.779-0.346,2.489,0.221c1.232,0.985,1.1,2.898-0.255,3.705
					l-15.494,9.231c-2.582,1.539-5.923,0.693-7.462-1.89L313.772,418.794z"/>
				<path style="fill:#426DC0;" d="M269.408,374.247c3.69,4.231,7.506,8.354,11.43,12.387c3.927,4.03,30.084,30.228,30.087,30.231
					c0,0,8.216-4.683,10.481-9.286c-3.554-6.647-33.492-41.631-37.051-45.973c-1.776-2.173-3.616-4.293-5.46-6.409
					c-1.881-2.085-3.753-4.177-5.77-6.147c-3.712-3.627-7.827-7.151-23.987,4.074c-17.009,11.815-34.963,37.408-34.963,37.408
					c-8.784,6.852-13.739,17.324-6.887,26.109c6.852,8.784,19.527,10.35,28.311,3.498c1.454-1.135,2.766-2.511,3.819-3.921
					l23.638-49.34C264.128,368.168,268.304,372.987,269.408,374.247z"/>
				<path style="fill:#FFD05B;" d="M284.355,361.607c-1.776-2.173-3.616-4.293-5.46-6.409c-1.881-2.085-3.753-4.177-5.77-6.147
					c-3.712-3.627-7.827-7.151-23.987,4.074c-17.009,11.815-34.963,37.408-34.963,37.408c-7.419,5.788-12.106,14.158-9.255,21.912
					l40.273-2.768l21.54-36.498c14.509,20.258,44.187,43.684,44.19,43.686c0,0,8.216-4.683,10.481-9.285
					C317.852,400.933,287.914,365.948,284.355,361.607z"/>
			</g>
			<g>
				<g>
					<path style="fill:#B56B1F;" d="M350.621,433.189l-5.927-0.434l-0.07-10.415c2.181-0.273,4.17-1.129,5.82-2.397
						C353.864,423.457,354.53,429.783,350.621,433.189z"/>
					<path style="fill:#193441;" d="M349.854,433.133c1.961-1.434,3.254-3.802,2.747-6.832c-0.488-2.914-2.296-4.489-4.437-4.983
						c3.808-1.759,6.526-5.433,6.93-9.788l0.152-1.635c0.102-0.903,0.736-1.657,1.608-1.913c1.513-0.444,3.005,0.76,2.889,2.333
						l-1.318,17.988c-0.22,2.998-2.828,5.25-5.826,5.03L349.854,433.133z"/>
				</g>
				<path style="fill:#FFE299;" d="M267.495,403.719c-12.068-2.107-50.647-23.465-67.976-10.219s-3.183,28.528-4.272,29.165
					c13.134,16.826,37.697,3.068,57.661,2.891c16.259-0.144,25.332-0.487,40.256,3.111c14.923,3.598,52.016,5.676,52.016,5.676
					c2.38-3.165,1.923-14.914,1.923-14.914S286.056,406.959,267.495,403.719z"/>
			</g>
		</g>
		<path style="fill:#885017;" d="M219.993,346.927c1.262,2.497,2.635,5.129,4.13,7.833c1.223,2.177,2.493,4.402,3.853,6.547
			c1.352,2.142,2.806,4.22,4.249,6.009c0.72,0.888,1.454,1.693,2.104,2.295c0.628,0.613,1.256,0.997,1.219,1.025
			c0.005,0.017-0.017,0.015-0.055,0.01c-0.028,0.004-0.061,0.012-0.133,0.001c-0.03-0.001-0.061,0.001-0.092,0.006l-0.023,0.004
			c-0.44-0.022-0.104-0.004-0.194-0.008l0.032,0.004l0.128,0.016c0.137,0.02,0.444,0.051,0.325,0.051
			c-0.117,0.029,0.021,0.057,0.13,0.075c0.111,0.018,0.241,0.024,0.381,0.029c0.569-0.022,1.383-0.128,2.249-0.438
			c1.769-0.563,3.74-1.628,5.529-2.828c1.797-1.214,3.514-2.525,4.992-3.871c1.499-1.331,2.777-2.681,3.894-3.897
			c1.21-1.155,1.514-2.71,2.055-3.758c0.534-1.058,1.192-1.722,1.767-2.094c0.288-0.185,0.532-0.312,0.718-0.38
			c0.183-0.076,0.284-0.085,0.284-0.085l1.543-0.135c0.046-0.004,0.093-0.007,0.14-0.009c1.949-0.085,3.598,1.426,3.683,3.375
			c0,0,0.005,0.12,0.016,0.354c0.008,0.22-0.015,0.521-0.079,0.89c-0.129,0.736-0.52,1.688-1.367,2.657
			c-0.84,0.977-2.25,1.858-3.086,3.436c-0.93,1.516-2.033,3.198-3.271,5.056c-1.259,1.842-2.64,3.877-4.374,5.939
			c-1.75,2.053-3.752,4.221-6.604,6.174c-1.441,0.941-3.114,1.872-5.18,2.464c-0.522,0.145-1.058,0.277-1.622,0.379
			c-0.566,0.097-1.107,0.182-1.908,0.217l-0.701,0.035l-0.129,0.007l-0.032,0.002c-0.111-0.005,0.204,0.014-0.258-0.011l-0.15-0.011
			l-0.602-0.057c-0.414-0.039-0.783-0.107-1.145-0.185c-0.376-0.074-0.73-0.162-1.05-0.264c-1.339-0.396-2.443-0.919-3.388-1.457
			c-0.957-0.542-1.797-1.11-2.549-1.683c-1.524-1.15-2.783-2.326-3.95-3.507c-2.329-2.358-4.242-4.776-6.03-7.166
			c-1.777-2.393-3.402-4.763-4.877-7.093c-0.823-1.284-1.599-2.545-2.348-3.787C212.346,355.224,216.314,351.232,219.993,346.927z"
			/>
		<path style="fill:#FFFFFF;" d="M171.043,331.544c4.419-4.045,6.903-5.137,13.835-7.585l9.658-0.301
			c4.779-1.545,8.025-1.659,10.502,0.341c0.001,0,0.002,0,0.003,0c2.995,0,6.6,6.625,6.6,6.625s0.606,0.9,1.642,2.992
			c1.062,2.123,2.596,5.024,4.501,8.627c0.963,1.84,2.03,3.755,3.178,5.831c-1.82,1.91-3.592,3.822-5.334,5.799
			c0.383,9.024,2.746,12.313,5.238,21.117l10.289,9.695c0,0-3.359,12.168-41.202,24.811c-2.759-13.024-5.345-19.734-10.31-30.694
			C172.005,361.942,162.982,338.923,171.043,331.544z"/>
		<g>
			<polygon style="fill:#3CC9E3;" points="280.078,337.861 281.434,328.775 280.267,328.772 279.076,338.519 			"/>
			<path style="fill:#FFFFFF;" d="M251.857,337.27c0,0,6.311-8.517,24.048-1.185c0,0-0.75-6.643,4.249-6.392l-1.077,8.076
				l-2.669,2.453L251.857,337.27z"/>
			<polygon style="fill:#3CC9E3;" points="249.674,335.779 242.738,372.851 268.701,376.44 276.16,338.178 			"/>
			<polygon style="fill:#78EEDB;" points="268.701,376.44 272.812,372.928 280.378,336.307 276.16,338.178 			"/>
		</g>
		<g>
			<defs>
				<path id="XMLID_52_" d="M225.057,295.387c1.505-9.833-3.179-16.423-14.013-19.395c-6.457-1.772-13.373,0.121-18.33,4.623
					l-0.716,0.65c-4.099,3.721-6.885,10.725-6.8,16.26l4.087,13.481l-5.046,13.348c0,0,10.623,7.986,15.873,1.626l1.819-8.441
					c0,0,5.415,4.176,10.599,3.032C215.242,319.971,221.986,315.454,225.057,295.387z"/>
			</defs>
			<use xlink:href="#XMLID_52_"  style="overflow:visible;fill:#B56B1F;"/>
			<clipPath id="XMLID_00000035505417786872147760000005693999368935665333_">
				<use xlink:href="#XMLID_52_"  style="overflow:visible;"/>
			</clipPath>
		</g>
		<path style="fill:#B56B1F;" d="M200.229,361.975c1.097,2.055,2.261,4.152,3.523,6.241c1.418,2.36,3.001,4.682,4.595,6.662
			c0.792,0.979,1.612,1.849,2.292,2.441c0.335,0.294,0.623,0.498,0.772,0.608c0.151,0.115,0.128,0.106-0.156,0.125
			c0.138,0.134,1.333,0.083,2.504-0.165c1.206-0.246,2.555-0.586,3.901-1.018c2.713-0.851,5.506-1.885,8.177-3.009
			c2.679-1.12,5.271-2.301,7.718-3.468c2.448-1.167,4.724-2.37,6.81-3.511c1.036-0.584,2.029-1.144,2.974-1.677
			c0.948-0.529,1.834-1.055,2.578-1.678c1.479-1.262,2.633-2.548,3.789-3.308c1.126-0.802,2.144-1.242,2.893-1.465
			c0.742-0.234,1.204-0.247,1.204-0.247L254,358.5c0.484-0.011,0.978,0.074,1.456,0.266c1.889,0.759,2.805,2.906,2.046,4.795
			c0,0-0.185,0.461-0.663,1.102c-0.471,0.653-1.247,1.491-2.417,2.295c-1.141,0.847-2.785,1.497-4.539,2.424
			c-0.872,0.472-1.711,1.103-2.587,1.786c-0.887,0.668-1.819,1.37-2.792,2.103c-1.961,1.467-4.085,3.057-6.331,4.738
			c-2.262,1.685-4.686,3.433-7.287,5.175c-2.612,1.73-5.365,3.501-8.469,5.09c-1.565,0.778-3.197,1.557-5.058,2.194
			c-0.937,0.317-1.924,0.614-3.03,0.852c-0.564,0.12-1.121,0.218-1.8,0.299l-0.605,0.051l-0.525,0.034l-0.3,0.018l-0.15,0.009
			c0.184,0.005-0.285-0.005-0.276-0.005l-0.087-0.004l-0.173-0.009c-1.885-0.084-3.465-0.569-4.767-1.116
			c-1.306-0.556-2.386-1.194-3.34-1.839c-1.894-1.299-3.373-2.646-4.714-3.985c-2.663-2.679-4.736-5.397-6.651-8.029
			c-1.04-1.436-1.998-2.858-2.903-4.256C192.186,369.089,196.171,365.489,200.229,361.975z"/>
		<polygon style="fill:#885017;" points="201.932,317.539 195.383,313.159 200.958,322.263 		"/>
		<g>
			<path style="fill:#FFFFFF;" d="M216.281,311.774c0.595,0.116,0.86,0.863,0.426,1.286c-1.27,1.238-3.099,1.857-4.973,1.492
				c-1.84-0.358-3.284-1.581-4.009-3.163c-0.27-0.589,0.209-1.242,0.845-1.118L216.281,311.774z"/>
		</g>
		<path style="fill:#D9F0EF;" d="M188.036,307.493c0,0-9.34-12.849-2.717-26.338c7.103-14.467,38.277-18.351,41.07,6.885
			c0.22,1.989-0.901,3.891-2.746,4.666c-5.84,2.454-19.339,7.2-31.07,4.455L188.036,307.493z"/>
		<path style="fill:#B56B1F;" d="M196.732,297.595c-0.56,2.03-2.66,3.221-4.689,2.661c-2.03-0.56-3.221-2.659-2.661-4.689
			c0.56-2.03,2.659-3.221,4.689-2.661C196.101,293.466,197.292,295.566,196.732,297.595z"/>
	</g>
</g>
</svg>
